<svg width="71" height="66" viewBox="0 0 71 66" fill="none" xmlns="http://www.w3.org/2000/svg">
<g opacity="0.9">
<g opacity="0.8">
<g clip-path="url(#clip0_1_17100)">
<path fill-rule="evenodd" clip-rule="evenodd" d="M37.899 49.4498C32.003 49.4498 26.0129 45.9498 22.517 41.3172C5.7448 41.3172 5.23779 65.2775 5.23779 65.2775H70.5561C70.5561 65.2775 71.8727 41.2109 53.0112 41.2109C49.5193 45.9008 43.795 49.4498 37.899 49.4498V49.4498Z" fill="#4F00FF"/>
<path fill-rule="evenodd" clip-rule="evenodd" d="M51.948 20.7262C51.948 27.6199 45.6553 40.8022 37.8866 40.8022C30.1302 40.8022 23.8335 27.6158 23.8335 20.7262C23.8335 13.8366 30.1261 8.24316 37.8866 8.24316C45.6553 8.24725 51.948 13.8407 51.948 20.7262V20.7262Z" fill="#4F00FF"/>
<path fill-rule="evenodd" clip-rule="evenodd" d="M58.2184 14.7768C58.2184 13.4847 56.4193 12.4421 54.1868 12.4339V9.77209C54.1868 9.37547 54.3381 0.0898438 37.9339 0.0898438C21.5379 0.0898438 21.6892 9.37547 21.6892 9.77209V12.5279C21.6483 12.5279 21.6156 12.5157 21.5788 12.5157C19.3586 12.5157 17.5718 13.5419 17.5718 14.8136V26.0741C17.5718 27.3375 19.3627 28.3679 21.5788 28.3679C23.7949 28.3679 25.594 27.3375 25.594 26.0741V14.8136C25.594 14.6377 25.4836 14.4783 25.4182 14.3147V11.244C25.4182 10.9619 24.2406 3.95375 37.9339 3.95375C51.6313 3.95375 50.2084 10.9619 50.2084 11.244V14.4783C50.1839 14.5805 50.1062 14.6705 50.1062 14.7768V26.2949C50.1062 27.591 51.9176 28.6418 54.1623 28.6418C54.2114 28.6418 54.2482 28.6255 54.2972 28.6255V32.8328H50.2739V36.799H58.2593L58.2184 14.7768V14.7768Z" fill="#4F00FF"/>
</g>
</g>
</g>
<defs>
<clipPath id="clip0_1_17100">
<rect width="70" height="65.4206" fill="white" transform="translate(0.833496)"/>
</clipPath>
</defs>
</svg>
